<svg xmlns="http://www.w3.org/2000/svg" width="390" height="222" fill="none" viewBox="0 0 390 222"><path fill="#42B482" d="M106.22 88.73s23.64-10.66 13.17-.58C111.45 112.8 95.93 124 62 137.98c-45.71 18.87-57.46 38.74-67 58.49-23.94 43.7-23.43 16.07-23.43 16.07s-2.86-65.47 61.92-85.82c64.78-20.35 72.73-38 72.73-38Z"/><path fill="#42B482" d="M115.15 73.11s27.88 14.5 51 19.7c39.52 8.9 75.64-3.6 102.85-4.81 27.2-1.22 45.68 4.92 52 7.5 6.33 2.58-23-27.7-53.49-25.76-17.23 1.1-59.23 10.99-88.8 6.54-25.24-3.8-41.12-3.92-52.09-7.04-7.04-2-6.52.78-6.52.78l-4.96 3.09Z"/><path fill="#42B482" d="M15 90.5c1-9 6-16.5 12.5-23.5 5.2-4.59 19.5-10.41 23-10-5 .5-12 11-15 16s-5.5 12.5-4 24.5c1.2 9.6 8.5 18.67 12 22-.67.5-1.8 1.7-11-1.5C21 114 14 99.5 15 90.5Z"/><path fill="#E34D61" d="M25.5 68.64c13.53-13.43 29.2-13.82 45.24-9.91 31.64 6.87 60.92 21.67 61.21 21.82l-3.18 1.14-3.82-.05-4.84 1.4c-1.17.75-3.36 2.11-6.26 3.82l-.64.38-.72-.21a420.47 420.47 0 0 1-20.65-6.83c-10.52-3.68-20.44-7.15-32.03-9.57C51.72 68.94 46.5 67 39.01 67H31l-5.5 1.64Z"/><path fill="#E34D61" d="M63.5 107.58c10.64-5.89 18.87-11.39 27.85-17.73 5.56-3.93 11.32-8 17.75-12.05l.63-.4.73.19c3.3.86 5.8 1.58 7.15 2l4.68-6.02 8.94 3.83-1.5 1.42c-.24.22-23.89 22.23-52.12 37.23a96.14 96.14 0 0 1-4.75 2.52c-12.22 6.02-16.82 9.56-31.91 1.33-.25-.12 9.77-5.23 22.56-12.31l-.01-.01Z"/><path fill="#E34D61" d="M56 124.5c-13.5 1-25.5-6-30.5-10.5 8.4 4.8 18.5 2.5 29-1.5l1.5 12Z"/><path fill="#E34D61" d="M31.5 68c5.5-1 9.5-1 14.5-.5 0-2.4-9.83-1.67-17-2-4 3-4.67 4.67-5.5 6 1-1 3.67-2.71 8-3.5Z"/><path fill="#42B482" d="M217.9 32.44c-5.51-7.18-13.67-11-22.86-13.63-6.82-1.23-22.07 1.19-24.85 3.35 4.53-2.16 15.96 3.2 21.11 5.92 5.16 2.73 11.18 7.85 16.11 18.9 3.94 8.83 2.4 20.36 1.13 25.03.83.08 2.42.52 8.63-6.98 7.77-9.38 6.25-25.4.73-32.6Z"/><path fill="#E34D61" d="M197.6 19.18c-18.52-4.49-32.13 3.28-43.84 14.94-23.5 22.26-40.89 50.08-41.06 50.36l3.3-.67 3.25-2.03 4.87-1.3c1.39.03 3.96.07 7.33.02h.74l.51-.56a413.8 413.8 0 0 0 14.13-16.52c7.1-8.6 13.79-16.7 22.45-24.78 6.05-5.63 9.5-10 15.92-13.88l6.85-4.14 5.55-1.44Z"/><path fill="#E34D61" d="M185.25 72.16c-12.15.47-22.04.03-33-.74-6.8-.48-13.83-.98-21.43-1.12l-.74-.02-.53.54a186.87 186.87 0 0 0-5.09 5.41l-7.11-2.72-5.66 7.9 2.02.44c.32.06 31.94 6.65 63.86 4.87a99.9 99.9 0 0 0 5.36-.3c13.57-1.18 19.35-.54 28-15.4.14-.23-11.07.6-25.68 1.16v-.02Z"/><path fill="#E34D61" d="M200.43 82.76c12.07-6.14 18.71-18.34 20.66-24.78-4.7 8.46-14.53 11.72-25.59 13.73l4.93 11.05Z"/><path fill="#E34D61" d="M192.14 21.73a47.6 47.6 0 0 0-12.67 7.08c-1.24-2.05 7.55-6.51 13.51-10.5 4.98.49 6.41 1.57 7.81 2.28-1.37-.34-4.54-.42-8.65 1.14Z"/><path fill="#E44D61" d="M319.03 94.82s20.12 22.73 79.09 14.85c58.97-7.89 60.73-55 60.73-55S440.05 79.59 396.5 91c-16.83 4.4-46.5 8.5-63.5 3.82-4.9-.43-8.9 1.07-13.98 0h.01Z"/><path fill="#E34D61" d="M300.5 78c3 6 12.5 14.5 26 22.5L334 95c-5.1-.79-11.5-4-18.5-8.5-6.44-3.38-10-6-15-8.5Z"/><path fill="#E34D61" d="M118.2 66.34c5.09-1.49 11.87 2.03 13.86 7.95 1.97 5.82 1.02 13.8-4.63 15.39-5.1 1.43-11.68-2.38-11.68-2.38s3.08-1.06 5.1-4.92c2.03-3.85 0-6.38-2.66-7.82-3.34-.72-6.35 0-6.35 0l-1.84-2.1s2.88-4.56 8.19-6.13l.01.01Z"/></svg>